<?xml version="1.0" encoding="UTF-8"?>
<svg id="Layer_1" data-name="Layer 1" xmlns="http://www.w3.org/2000/svg" viewBox="1120 1290 800 830">
  <path d="M1317.394,1705.34c-36.368,3.727-62.863-2.015-80.594-17.529-25.589-21.861-33.446-62.863-37.174-107.291,33.144-8.765,129.655-40.901,181.336-127.338,3.644-6.371,1.434-14.489-4.936-18.134-6.371-3.644-14.489-1.434-18.134,4.936-43.924,73.24-127.137,103.966-160.583,113.738l-.705-12.492c-1.007-17.428-2.015-35.361-3.828-52.487-.751-7.205-7.201-12.437-14.406-11.686s-12.437,7.201-11.686,14.406h0c1.713,16.522,2.821,34.152,3.727,51.278,3.727,63.669,7.455,129.555,48.961,164.915,23.876,20.148,56.819,28.107,100.742,23.674,36.167-3.627,60.445,2.922,70.52,19.645,23.977,36.972-13.298,119.48-29.719,148.091-3.589,6.287-1.401,14.293,4.886,17.882,6.287,3.589,14.293,1.401,17.882-4.886,6.85-11.988,65.886-118.372,28.913-175.392-16.421-25.488-48.457-36.066-95.201-31.331Z"/>
  <path d="M1170.411,1424.471c7.197-.719,12.448-7.137,11.729-14.334-.012-.125-.027-.25-.043-.374l-10.074-90.668c-1.218-7.13-7.985-11.922-15.115-10.704-6.521,1.114-11.188,6.917-10.877,13.525l10.074,90.668c.719,6.639,6.318,11.674,12.996,11.686l1.31.201Z"/>
  <path d="M1530.464,1397.17l-10.779-78.075c-.974-7.177-7.581-12.206-14.759-11.233-7.177.974-12.206,7.581-11.233,14.759l3.526,25.992-248.531,33.95c-7.178.894-12.271,7.437-11.378,14.615.821,6.592,6.447,11.525,13.09,11.478h1.813l248.834-33.749,3.526,25.992c.906,6.479,6.454,11.296,12.996,11.283h2.116c7.113-1.183,11.931-7.893,10.779-15.011Z"/>
  <path d="M1369.578,1334.306c.906,6.479,6.454,11.296,12.996,11.283h1.813c7.14-.99,12.138-7.564,11.182-14.708l-1.713-11.787c-.974-7.177-7.581-12.206-14.759-11.233-7.177.974-12.206,7.581-11.233,14.759l1.713,11.686Z"/>
  <path d="M1320.517,1340.955c.906,6.479,6.454,11.296,12.996,11.283h1.813c7.14-.99,12.138-7.564,11.182-14.708l-1.612-11.988c-.974-7.177-7.581-12.206-14.759-11.233-7.177.974-12.206,7.581-11.233,14.759l1.612,11.888Z"/>
  <path d="M1271.455,1347.604c.667,6.641,6.221,11.718,12.895,11.787h1.813c7.14-.99,12.138-7.564,11.182-14.708l-1.612-11.988c-.974-7.177-7.581-12.206-14.759-11.233-7.177.974-12.206,7.581-11.233,14.759l1.713,11.384Z"/>
  <path d="M1585.456,1462.685c6.151,0,11.355,4.731,11.355,11.355v209.129c0,6.151-5.205,9.355-11.355,9.355s-11.355-3.205-11.355-9.355v-34.539c-19.872,27.442-51.572,45.895-87.058,45.895-61.035,0-109.769-52.519-109.769-115.92s48.734-115.92,109.769-115.92c35.486,0,67.186,17.979,87.058,45.422v-34.066c0-6.624,5.205-11.355,11.355-11.355h0ZM1487.042,1671.814c47.787,0,87.058-41.163,87.058-93.209s-39.271-93.682-87.058-93.682c-47.314,0-87.058,41.636-87.058,93.682s39.744,93.209,87.058,93.209h0ZM1715.107,1485.489h-129.168c-6.151,0-11.355-5.205-11.355-11.355,0-6.624,5.205-11.355,11.355-11.355h149.986c2.839-.473,5.678.473,8.043,1.893l1.419,1.419.473.473c2.839,2.839,3.785,6.624,2.366,10.409-.473,2.366-1.893,4.731-4.258,6.151l-136.265,186.891h129.641c6.151,0,11.355,4.731,11.355,11.355s-5.205,11.355-11.355,11.355h-151.405c-4.731,0-8.99-2.839-10.409-6.624,0-.473-.473-.473-.473-.473-.473-1.419-.473-2.839-.473-4.258v-.473c0-3.312,1.419-6.151,3.785-8.043l136.738-187.364ZM1865.228,1485.489h-129.168c-6.151,0-11.355-5.205-11.355-11.355,0-6.624,5.205-11.355,11.355-11.355h149.986c2.839-.473,5.678.473,8.043,1.893l1.419,1.419.473.473c2.839,2.839,3.785,6.624,2.366,10.409-.473,2.366-1.893,4.731-4.258,6.151l-136.265,186.891h129.641c6.151,0,11.355,4.731,11.355,11.355s-5.205,11.355-11.355,11.355h-151.405c-4.731,0-8.99-2.839-10.409-6.624,0-.473-.473-.473-.473-.473-.473-1.419-.473-2.839-.473-4.258v-.473c0-3.312,1.419-6.151,3.785-8.043l136.738-187.364ZM1715.007,1485.489h-129.168c-6.151,0-11.355-5.205-11.355-11.355,0-6.624,5.205-11.355,11.355-11.355h149.986c2.839-.473,5.678.473,8.043,1.893l1.419,1.419.473.473c2.839,2.839,3.785,6.624,2.366,10.409-.473,2.366-1.893,4.731-4.258,6.151l-136.265,186.891h129.641c6.151,0,11.355,4.731,11.355,11.355s-5.205,11.355-11.355,11.355h-151.405c-4.731,0-8.99-2.839-10.409-6.624,0-.473-.473-.473-.473-.473-.473-1.419-.473-2.839-.473-4.258v-.473c0-3.312,1.419-6.151,3.785-8.043l136.738-187.364ZM1865.128,1485.489h-129.168c-6.151,0-11.355-5.205-11.355-11.355,0-6.624,5.205-11.355,11.355-11.355h149.986c2.839-.473,5.678.473,8.043,1.893l1.419,1.419.473.473c2.839,2.839,3.785,6.624,2.366,10.409-.473,2.366-1.893,4.731-4.258,6.151l-136.265,186.891h129.641c6.151,0,11.355,4.731,11.355,11.355s-5.205,11.355-11.355,11.355h-151.405c-4.731,0-8.99-2.839-10.409-6.624,0-.473-.473-.473-.473-.473-.473-1.419-.473-2.839-.473-4.258v-.473c0-3.312,1.419-6.151,3.785-8.043l136.738-187.364ZM1479.69,1915.009v-209.129c0-6.624,5.205-11.355,11.355-11.355h0c6.624,0,11.829,4.731,11.829,11.355h0v209.129c0,6.151-5.205,11.355-11.829,11.355h0c-6.151,0-11.355-5.205-11.355-11.355h0ZM1412.402,1893.244c-4.731-4.258-5.205-10.409-1.419-15.141h0c3.785-4.731,10.882-5.678,16.087-1.419h0c16.087,11.829,41.636,26.969,70.971,26.969h0c17.979,0,33.593-5.678,44.002-14.194h0c11.355-7.57,17.506-17.979,17.506-28.389h0c-.473-10.882-4.731-18.453-16.56-28.389h0c-9.936-7.57-26.496-13.248-49.207-17.033h0l-.946-.473c-20.818-3.785-39.271-8.517-52.519-17.979h0c-14.667-8.517-25.077-23.657-25.077-41.636h0c0-18.453,10.409-34.539,25.077-45.422h0c13.721-9.463,33.12-15.614,56.777-15.614h0c29.808,0,51.099,13.721,69.079,25.077h0c5.205,3.785,6.624,10.882,3.312,16.087h0c-3.312,5.205-10.409,6.624-15.614,3.312h0c-17.033-11.355-34.066-23.184-56.777-23.184h0c-18.926,0-34.066,5.205-44.002,13.248h0c-9.463,7.57-14.667,17.033-14.667,26.496h0c0,9.463,4.258,16.087,13.248,23.184h0c10.409,7.097,26.023,12.775,47.314,16.087h.946c22.238,3.312,40.217,9.936,56.304,18.926h0c15.141,9.936,26.023,27.915,26.023,47.314h0c0,19.399-10.882,35.012-26.496,46.841h0c-16.087,11.829-35.012,18.453-57.723,18.453h0c-37.378-.473-66.713-17.979-85.639-33.12h0ZM1740.083,1912.736v-125.856c0-39.271-31.7-71.444-71.444-71.444-39.271,0-70.971,32.174-71.918,71.444v127.748c-.473,1.893-.946,3.785-2.366,5.205-1.893,2.839-5.205,4.258-8.517,4.258h-2.839c-3.312-.946-6.151-3.312-7.57-6.151-.473-.473-.473-.946-.473-1.419s-.473-.946-.473-.946v-211.494c0-6.151-3.328-92.639,11.986-91.068,10.287,1.055,10.251,84.918,10.251,91.068v22.238c17.033-20.345,43.056-33.593,71.918-33.593,52.046,0,94.155,42.583,94.155,94.155v125.856c0,6.624-5.205,11.355-11.355,11.355s-11.355-4.731-11.355-11.355h0ZM1646.638,1808.171c0-62.928,49.207-115.92,109.769-115.92h0c61.035,0,109.769,52.992,109.769,115.92h0c0,62.928-48.734,115.92-109.769,115.92h0c-60.562,0-109.769-52.992-109.769-115.92h0ZM1669.348,1808.171c0,51.572,39.744,93.209,87.058,93.209h0c47.314,0,87.058-41.636,87.058-93.209h0c0-51.572-39.744-93.682-87.058-93.682h0c-47.314,0-87.058,42.11-87.058,93.682h0ZM1682.175,2076.883c-.946,0-1.419-.473-1.893-.946-2.366-.946-3.785-2.839-4.731-5.205l-87.058-207.236c-2.366-5.678-8.715-38.056-3.51-40.421,5.678-2.366,2.945-17.965,23.855,31.905l77.122,182.633,53.465-127.275c1.893-4.258,6.624-7.097,10.882-7.097,4.731,0,9.463,2.839,11.355,7.097l53.465,127.275,76.649-182.633c2.366-5.678,9.463-8.517,14.667-6.151,5.678,2.366,8.517,8.99,6.151,14.667l-86.585,206.29c-.946,2.366-2.366,4.258-4.258,5.678s-3.785,2.366-5.678,2.366h-2.366c-3.785-.473-8.043-3.312-8.99-7.097l-.473-.473-53.938-128.221-53.465,127.748s-.473.473-.473.946c-1.419,4.258-6.151,7.097-9.936,7.097-1.419,0-2.839-.473-4.258-.946h0Z"/>
</svg>