<?xml version="1.0" encoding="UTF-8"?>
<svg id="Layer_1" data-name="Layer 1" xmlns="http://www.w3.org/2000/svg" viewBox="0 0 1024 1024">
  <defs>
    <style>
      .cls-1 {
        fill: #fff;
      }
    </style>
  </defs>
  <path class="cls-1" d="M1024,0v1024H0V0h1024ZM304.646,279.648c1.621-1.836,2.646-4.321,4.469-6.035,1.652-1.553,7.151-4.202,7.407-4.591.282-.429,3.24-8.277,3.58-9.477,4.48-15.801-14.757-34.615-28.172-39.975-3.831-1.531-9.466-1.658-13.136-2.864-5.066-1.665-27.076-15.233-30.783-9.633,2.014,2.98-2.104,5.415-4.762,5.791-2.626.371-2.925-2.112-5.249-1.854-.578.482,3.544,3.41,3.84,4.688.868,3.749-1.311,14.456-.368,17.803.682,2.42,2.382,1.498,2.139,6.159-.945,18.082-15.374,31.975-24.179,46.272-8.399,13.639-17.56,27.419-25.609,41.391-11.017,19.125-23.286,31.957-35.797,48.933-8.022,10.884-18.148,21.63-26.996,32.224-12.083,14.466-25.686,29.085-36.717,43.826-3.615,4.831-4.44,4.12-7.082,6.909-1.101,1.163-.827,3.982-1.827,5.732-1.545,2.702-9.46,6.565-6.913,11.042,2.648-2.773,7.186-2.004,9.75-3.167,1.246-.566,3.652-3.76,4.754-2.818,1.745,1.491-5.151,2.924.478,3.981,2.679-3.557,3.599-6.087,8.046-7.974,3.498-.188-1.483,4.745-2.511,4-.275,1.587,1.351,1.129,2.273.778,2.098-.798,7.952-4.512,10.095-5.961,1.069-.723,5.439-7.343,5.623-1.835-4.765-1.104-2.705,3.218-3.487,4.068-1.348,1.467-4.271-.202-3.505,2.933,3.943.244,5.677-2.58,7.735-3.969,15.12-10.201,31.99-24.168,45.78-36.005,11.965-10.271,24.434-20.31,36.532-30.468,1.683-1.413,3.037-6.589,5.403-3.511,1.273,2.875,2.273,5.19,2.597,8.404,1.499,14.878-2.007,38.68-3.868,53.317-4.122,32.419-8.582,66.68-15.436,98.486-2.495,11.58-7.09,23.084-6.6,35.082.747,18.27,11.487,47.505,24.789,60.226,1.126,1.077,2.911,1.226,3.938,2.11,6.671,5.748,9.422,10.129,19.879,5.62,1.148-.495,1.144-1.791,2.004-2.23,3.244-1.656,5.234-.883,8.202-4.831,5.205-6.925,3.534-10.64,5.069-17.526.157-.703,1.639-.689,1.878-1.48,1.444-4.775.262-6.006.194-9.835-.283-15.973,1.16-30.024-1.8-45.676-1.183-6.254,1.284-16.644.617-23.14-.43-4.186-2.637-10.815-2.922-16.147-.561-10.503,3.046-24.071,2.112-33.976-.179-1.897-2.119-1.382-2.143-2.018-.245-6.708,3.692-19.027,4.707-25.694.756-4.962-1.615-13.349-1.496-14.054.567-3.347,4.511-11.103,4.777-16.317.558-10.918,1.615-10.128,4.247-19.752,3.793-13.868-.934-23.393-7.623-34.711-.503-.851.181-2.294-.164-2.95-1.169-2.224-6.811-4.362-8.033-6.296-.627-.993-.351-2.704-.96-3.538-3.808-5.217-9.76-8.178-5.445-14.682,2.759-4.159,12.223-8.592,14.59-11.367,3.876-4.544,8.094-12.485,13.039-17.961,16.202-17.946,26.844-37.112,43.04-55.458ZM467.567,331.453c-2.198-1.157-4.63-4-7.134-4.431-1.696-.292-11.626.706-13.858,1.054-18.505,2.889-40.478,11.18-59.345,15.655-24.204,5.741-57.079,14.878-80.789,12.32-6.085-.656-13.673-.722-15.385,6.378.242.961,2.265,1.342,2.964,2.323,6.141,8.625,15.84,21.946,23.728,28.274,1.479,1.186,4.277,1.579,4.96,2.27.706.715.596,2.808,2.199,4.296,1.315,1.221,11.014,6.153,13.143,6.859,18.678,6.187,37.756-.833,54.997-4.887s45.858-13.449,63.105-12.003c4.709.395,11.049,4.21,16.309,4.975,2.565.373,11.049.555,13.917.341,11.011-.824,19.299-7.772,18.739-19.419-.092-1.905-2.047-1.356-2.004-1.89.815-10.149-2.19-11.626-7.55-19.67-.65-.975-.27-2.703-.84-3.619-3.004-4.828-21.965-16.093-27.156-18.825ZM549.23,463.886c0-5.65-4.58-10.23-10.23-10.23s-10.23,4.58-10.23,10.23,4.58,10.23,10.23,10.23,10.23-4.58,10.23-10.23ZM581.285,463.945c0-5.622-4.558-10.18-10.18-10.18s-10.18,4.558-10.18,10.18,4.558,10.18,10.18,10.18,10.18-4.558,10.18-10.18ZM675,499v57h16v-57h16v-13h-16c-2.141-14.478,4.091-22.24,18.99-18.001l-.13-12.36c-.841-2.57-10.698-1.836-13.252-1.533-17.484,2.078-23.37,15.677-21.603,31.898l-13.01-.01v13.01s13.005-.005,13.005-.005ZM720,454v102h15v-102h-15ZM610,486h-15v70h15v-43.5c0-.346,2.18-5.78,2.572-6.428,5.65-9.347,18.972-11.035,25.266-1.41.57.872,3.162,6.396,3.162,6.838v43.5h15v-47.5c0-1.463-3.143-9.083-4.157-10.84-5.282-9.15-16.143-12.775-26.351-11.665-5.694.619-10.414,3.821-15.487,6l-.005-4.995ZM819.997,520.782c0-20.137-16.324-36.46-36.46-36.46s-36.46,16.324-36.46,36.46,16.324,36.46,36.46,36.46,36.46-16.324,36.46-36.46ZM547,486h-15v73.5c0,.323-1.475,5.49-1.781,6.219-2.258,5.365-7.567,7.571-13.219,7.281v14c11.54-.019,21.917-2.308,26.85-13.65.828-1.905,3.15-8.28,3.15-9.85v-77.5ZM563,486v70h16v-70h-16ZM839,486h-17l21.958,68.542,15.567-.516,13.975-46.036,14.111,47.071,14.904-1.046,21.485-68.015h-15.5l-14,49.01-13.384-48.43-16.072-.534-14.034,48.953-12.01-49ZM297.344,594.639c5.504,2.655,15.075,4.215,21.09,3.295,3.069-.469,5.729-2.858,8.363-3.628,13.635-3.985,28.859-7.833,42.756-10.811,23.641-5.066,49.827-9.994,74.953-7.504,9.72.963,17.921,3.37,27.882,4.029,3.291.218,7.6,3.034,11.774,2.447,3.116-.438,9.507-4.88,11.033-7.772,3.722-7.053.429-22.813-4.754-28.639-2.078-2.336-4.472-2.629-6.495-4.505-1.994-1.85-2.997-4.813-5.435-6.565-26.759-19.222-57.155-12.835-87.393-7.574-36.013,6.266-73.39,15.37-109.615,18.645-2.686.243-22.026-3.907-21.377,2.244.533,5.059,8.712,11.306,10.154,16.015.572,1.869-.361,3.785.187,4.654.501.796,2.235,1.195,2.945,2.124,6.827,8.935,13.536,18.528,23.933,23.543ZM922.996,601.985c.078-.083.371-2.108-.487-1.975l-30.491,16.558c-6.381-1.045-2.797.146-3.571,1.455-1.173,1.985-5.799,2.036-7.674,3.044-7.177,3.859-15.07,9.518-23.288,12.001-2.602.786-5.306-.281-5.481-.07-.202.245.402,1.999-.211,2.733-1.529,1.829-21.744,7.722-25.991,9.375-102.168,39.772-190.847,60.922-302.287,60.792-81.158-.095-172.06-17.658-251.57-1.452-12.704,2.589-52.572,16.212-61.269,24.514-.994.949-.38,2.508-1.285,3.141-1.297.907-3.635-.332-4.178.048-.454.318-5.207,6.021-6.409,6.614l-1.791-.77c.585,5.388-2.7,4.283-4.443,6.039-1.498,1.508-6.084,7.649-7.575,8.526-1.292.76-2.678-.891-2.989-.554,2.578,4.572-6.402,7.924-7.466,10.942-.413,1.171.737,2.778.312,4.312-.183.659-3.636,6.355-4.843,5.762,2.916,2.923,3.543,1.384,1.999,5.98l2.981-1.998c.62.671-5.652,7.572-1,8.999l1-4.995c.226,2.924-1.303,5.635,2.007,6.49l-2.997,3.487,3.991,2.018.02-3.999c5.217,3.389,8.386-4.163,12.116-7.328,8.481-7.197,22.224-15.509,32.17-20.877,3.947-2.13,11.577-5.86,15.669-7.337.947-.342,3.251-1.321,3.028.529-10.307,4.55-22.669,9.805-31.009,17.498-1.29,1.19-1.67,1.737.497,1.5,7.274-5.56,15.462-10.366,23.856-14.149,81.667-36.803,194.441-20.013,282.192-18.895,45.876.584,87.243-2.217,131.496-9.42,25.652-4.176,82.935-15.721,102.316-30.17,1.096-.817,2.832-.455,3.654-1.857-4.957-.334-10.379,3.382-15.343,4.687-1.56.41-1.853,1.204-2.652-1.171,32.595-10.756,63.714-25.111,96.004-36.506,2.084-2.083.599-1.686-1.123-1.125-7.239,2.363-15.972,6.544-22.831,8.178-1.009.24-3.271,1.315-3.044-.546,15.23-6.16,31.183-13.054,45.666-20.839,3.801-2.043,20.161-10.891,21.323-13.678l-1.991-1.485c5.558.4,8.24-2.308,12.516-5.019l.974,2.005,4.021-5.988c2.728.24.284,2.912,4.478.98l-1.989-1.483c1.641-3.548,5.331-2.211,6.938-3.053.902-.473,2.962-4.161,3.216-4.242.817-.261,3.017,1.334,3.839.789.603-.4.005-4.103.502-4.975.159-.279,4.226-4.412,4.504-4.574,1.153-.669,2.869.674,2.981.55.201-.223.122-2.796,2.816-4.929,2.042-1.617,7.883-3.754,8.197-4.087Z"/>
  <path d="M304.646,279.648c-16.196,18.346-26.839,37.512-43.04,55.458-4.944,5.476-9.163,13.418-13.039,17.961-2.367,2.776-11.831,7.209-14.59,11.367-4.315,6.505,1.637,9.465,5.445,14.682.609.834.333,2.545.96,3.538,1.222,1.934,6.863,4.072,8.033,6.296.345.656-.339,2.099.164,2.95,6.689,11.319,11.416,20.843,7.623,34.711-2.632,9.625-3.689,8.835-4.247,19.752-.266,5.214-4.21,12.97-4.777,16.317-.119.705,2.251,9.092,1.496,14.054-1.015,6.666-4.952,18.985-4.707,25.694.023.636,1.963.121,2.143,2.018.935,9.906-2.673,23.473-2.112,33.976.285,5.332,2.492,11.961,2.922,16.147.668,6.496-1.799,16.886-.617,23.14,2.96,15.653,1.516,29.703,1.8,45.676.068,3.829,1.25,5.06-.194,9.835-.239.791-1.721.777-1.878,1.48-1.535,6.885.137,10.601-5.069,17.526-2.968,3.948-4.958,3.175-8.202,4.831-.86.439-.855,1.735-2.004,2.23-10.457,4.509-13.208.129-19.879-5.62-1.027-.885-2.812-1.033-3.938-2.11-13.302-12.721-24.042-41.956-24.789-60.226-.491-11.998,4.104-23.502,6.6-35.082,6.854-31.806,11.314-66.067,15.436-98.486,1.861-14.637,5.367-38.44,3.868-53.317-.324-3.214-1.324-5.529-2.597-8.404-2.365-3.078-3.72,2.098-5.403,3.511-12.098,10.158-24.567,20.197-36.532,30.468-13.79,11.837-30.66,25.804-45.78,36.005-2.059,1.389-3.793,4.213-7.735,3.969-.765-3.135,2.157-1.465,3.505-2.933.781-.85-1.278-5.172,3.487-4.068-.185-5.508-4.555,1.112-5.623,1.835-2.142,1.448-7.997,5.162-10.095,5.961-.922.351-2.548.809-2.273-.778,1.028.745,6.009-4.187,2.511-4-4.447,1.886-5.367,4.416-8.046,7.974-5.63-1.057,1.267-2.49-.478-3.981-1.102-.942-3.508,2.253-4.754,2.818-2.564,1.163-7.102.394-9.75,3.167-2.548-4.477,5.368-8.341,6.913-11.042,1-1.75.726-4.569,1.827-5.732,2.642-2.79,3.467-2.079,7.082-6.909,11.031-14.741,24.634-29.36,36.717-43.826,8.848-10.594,18.974-21.34,26.996-32.224,12.512-16.976,24.781-29.808,35.797-48.933,8.049-13.973,17.21-27.752,25.609-41.391,8.804-14.298,23.234-28.191,24.179-46.272.244-4.661-1.457-3.738-2.139-6.159-.943-3.347,1.236-14.053.368-17.803-.296-1.279-4.417-4.206-3.84-4.688,2.324-.258,2.623,2.226,5.249,1.854,2.657-.376,6.776-2.811,4.762-5.791,3.706-5.6,25.717,7.968,30.783,9.633,3.67,1.206,9.305,1.333,13.136,2.864,13.415,5.36,32.652,24.174,28.172,39.975-.34,1.2-3.299,9.048-3.58,9.477-.256.39-5.755,3.038-7.407,4.591-1.823,1.714-2.848,4.198-4.469,6.035Z"/>
  <path d="M922.996,601.985c-.314.333-6.154,2.47-8.197,4.087-2.694,2.133-2.615,4.706-2.816,4.929-.112.124-1.829-1.219-2.981-.55-.278.161-4.345,4.295-4.504,4.574-.497.872.101,4.575-.502,4.975-.822.545-3.022-1.05-3.839-.789-.253.081-2.313,3.769-3.216,4.242-1.606.841-5.297-.496-6.938,3.053l1.989,1.483c-4.193,1.933-1.75-.74-4.478-.98l-4.021,5.988-.974-2.005c-4.276,2.71-6.959,5.419-12.516,5.019l1.991,1.485c-1.162,2.787-17.523,11.635-21.323,13.678-14.483,7.786-30.436,14.68-45.666,20.839-.227,1.861,2.035.786,3.044.546,6.859-1.634,15.592-5.815,22.831-8.178,1.722-.562,3.206-.958,1.123,1.125-32.289,11.395-63.409,25.75-96.004,36.506.799,2.375,1.091,1.581,2.652,1.171,4.964-1.304,10.386-5.02,15.343-4.687-.822,1.402-2.558,1.04-3.654,1.857-19.381,14.448-76.664,25.994-102.316,30.17-44.254,7.203-85.62,10.004-131.496,9.42-87.751-1.118-200.525-17.908-282.192,18.895-8.394,3.783-16.582,8.588-23.856,14.149-2.167.236-1.787-.31-.497-1.5,8.339-7.693,20.701-12.948,31.009-17.498.223-1.85-2.081-.871-3.028-.529-4.092,1.477-11.722,5.207-15.669,7.337-9.946,5.368-23.689,13.68-32.17,20.877-3.73,3.165-6.899,10.717-12.116,7.328l-.02,3.999-3.991-2.018,2.997-3.487c-3.31-.854-1.781-3.566-2.007-6.49l-1,4.995c-4.652-1.428,1.62-8.328,1-8.999l-2.981,1.998c1.543-4.596.917-3.058-1.999-5.98,1.206.594,4.66-5.102,4.843-5.762.426-1.535-.724-3.141-.312-4.312,1.064-3.017,10.044-6.369,7.466-10.942.311-.336,1.697,1.315,2.989.554,1.491-.877,6.078-7.018,7.575-8.526,1.743-1.756,5.028-.65,4.443-6.039l1.791.77c1.202-.593,5.955-6.296,6.409-6.614.543-.38,2.881.86,4.178-.048.905-.633.29-2.192,1.285-3.141,8.698-8.302,48.565-21.925,61.269-24.514,79.511-16.207,170.412,1.357,251.57,1.452,111.441.13,200.119-21.02,302.287-60.792,4.247-1.653,24.462-7.546,25.991-9.375.614-.734.009-2.488.211-2.733.175-.211,2.878.856,5.481.07,8.218-2.482,16.111-8.142,23.288-12.001,1.875-1.008,6.501-1.059,7.674-3.044.774-1.31-2.811-2.5,3.571-1.455l30.491-16.558c.858-.133.565,1.893.487,1.975Z"/>
  <path d="M297.344,594.639c-10.397-5.015-17.106-14.608-23.933-23.543-.71-.929-2.443-1.328-2.945-2.124-.548-.869.386-2.785-.187-4.654-1.442-4.709-9.621-10.956-10.154-16.015-.648-6.151,18.692-2.001,21.377-2.244,36.226-3.276,73.602-12.38,109.615-18.645,30.239-5.261,60.634-11.648,87.393,7.574,2.439,1.752,3.441,4.714,5.435,6.565,2.022,1.877,4.416,2.17,6.495,4.505,5.183,5.826,8.477,21.586,4.754,28.639-1.526,2.892-7.917,7.334-11.033,7.772-4.174.586-8.483-2.23-11.774-2.447-9.961-.658-18.162-3.066-27.882-4.029-25.126-2.49-51.312,2.438-74.953,7.504-13.898,2.978-29.121,6.826-42.756,10.811-2.634.77-5.294,3.158-8.363,3.628-6.015.92-15.586-.64-21.09-3.295Z"/>
  <path d="M467.567,331.453c5.19,2.732,24.152,13.997,27.156,18.825.57.916.19,2.643.84,3.619,5.36,8.045,8.365,9.521,7.55,19.67-.043.534,1.913-.015,2.004,1.89.56,11.647-7.728,18.595-18.739,19.419-2.868.215-11.352.032-13.917-.341-5.259-.765-11.6-4.58-16.309-4.975-17.247-1.447-45.783,7.93-63.105,12.003s-36.318,11.074-54.997,4.887c-2.13-.705-11.828-5.638-13.143-6.859-1.602-1.488-1.493-3.581-2.199-4.296-.683-.691-3.481-1.084-4.96-2.27-7.888-6.328-17.587-19.649-23.728-28.274-.699-.982-2.722-1.363-2.964-2.323,1.711-7.1,9.3-7.034,15.385-6.378,23.71,2.558,56.585-6.578,80.789-12.32,18.867-4.475,40.84-12.766,59.345-15.655,2.232-.348,12.161-1.346,13.858-1.054,2.504.431,4.937,3.275,7.134,4.431Z"/>
  <polygon points="839 486 851.01 535 865.044 486.047 881.116 486.58 894.5 535.01 908.5 486 924 486 902.515 554.015 887.611 555.061 873.5 507.99 859.526 554.026 843.958 554.542 822 486 839 486"/>
  <path d="M819.997,520.782c0,20.137-16.324,36.46-36.46,36.46s-36.46-16.324-36.46-36.46,16.324-36.46,36.46-36.46,36.46,16.324,36.46,36.46ZM769.357,537.643c11.482,11.41,31.743,4.32,34.405-11.381,6.118-36.075-44.702-37.572-40.764-1.757.469,4.266,3.349,10.148,6.359,13.138Z"/>
  <path d="M610,486l.005,4.995c5.073-2.178,9.793-5.381,15.487-6,10.208-1.11,21.069,2.515,26.351,11.665,1.014,1.756,4.157,9.376,4.157,10.84v47.5h-15v-43.5c0-.443-2.592-5.967-3.162-6.838-6.295-9.624-19.616-7.937-25.266,1.41-.392.648-2.572,6.082-2.572,6.428v43.5h-15v-70h15Z"/>
  <path d="M675,499l-13.005.005v-13.01s13.01.01,13.01.01c-1.767-16.221,4.119-29.82,21.603-31.898,2.555-.304,12.411-1.038,13.252,1.533l.13,12.36c-14.899-4.24-21.131,3.522-18.99,18.001h16v13h-16v57h-16v-57Z"/>
  <path d="M547,486v77.5c0,1.57-2.321,7.946-3.15,9.85-4.933,11.342-15.31,13.631-26.85,13.65v-14c5.651.29,10.961-1.916,13.219-7.281.307-.729,1.781-5.895,1.781-6.219v-73.5h15Z"/>
  <rect x="720" y="454" width="15" height="102"/>
  <rect x="563" y="486" width="16" height="70"/>
  <circle cx="539" cy="463.886" r="10.23"/>
  <circle cx="571.105" cy="463.945" r="10.18"/>
  <path class="cls-1" d="M769.357,537.643c-3.01-2.991-5.89-8.872-6.359-13.138-3.938-35.815,46.882-34.318,40.764,1.757-2.663,15.701-22.923,22.791-34.405,11.381Z"/>
</svg>
